<svg width="101" height="100" viewBox="0 0 101 100" fill="none" xmlns="http://www.w3.org/2000/svg">
<rect x="0.5" width="100" height="100" rx="15" fill="white"/>
<rect x="0.75" y="0.25" width="99.5" height="99.5" rx="14.75" stroke="#F54A6C" stroke-opacity="0.3" stroke-width="0.5"/>
<path d="M43.3909 28.4461L30.1556 33.6385C24.9806 35.6687 22.9285 40.6594 25.0532 46.0516L29.9569 58.4963C32.0756 63.8733 36.9846 66.1331 42.1597 64.1029L55.395 58.9105C60.5701 56.8803 62.6069 51.8955 60.4882 46.5186L55.5845 34.0739C53.4598 28.6817 48.566 26.4159 43.3909 28.4461" fill="url(#paint0_linear_590_1112)"/>
<g opacity="0.5" filter="url(#filter0_f_590_1112)">
<path d="M57.9146 46.3103L54.5934 37.8727C53.3887 34.8122 50.6098 33.8444 47.0501 35.2395L34.9936 39.9644C31.3755 41.3823 30.0461 43.9601 31.2508 47.0207L34.572 55.4582C35.7962 58.5681 38.5086 59.5038 42.1267 58.0859L54.1831 53.361C57.7429 51.966 59.1388 49.4202 57.9146 46.3103Z" fill="#F66581"/>
</g>
<g filter="url(#filter1_b_590_1112)">
<path d="M68.838 42.7623L68.6191 42.2825C68.0282 41.0392 67.3498 39.5996 66.934 38.7708C65.9274 36.8077 64.1985 35.7171 62.0758 35.6953H51.7684C49.6457 35.7171 47.9387 36.8077 46.9321 38.7708C46.4944 39.6432 45.7503 41.2137 45.1376 42.5006L45.0063 42.7623C44.9406 42.9368 44.7656 43.0241 44.5905 43.0241C39.3165 43.0241 35.0491 47.2992 35.0491 52.534V65.4902C35.0491 70.725 39.3165 75.0001 44.5905 75.0001H69.2756C74.5278 75.0001 78.8171 70.725 78.8171 65.4902V52.534C78.8171 47.2992 74.5278 43.0241 69.2756 43.0241C69.0787 43.0241 68.9255 42.915 68.838 42.7623Z" fill="#F54A6C" fill-opacity="0.4"/>
<path d="M44.9174 41.7997C44.8396 41.9633 44.763 42.1243 44.6884 42.281L44.5664 42.5241C39.0281 42.5371 34.5491 47.0302 34.5491 52.534V65.4902C34.5491 71.002 39.0411 75.5001 44.5905 75.5001H69.2756C74.8024 75.5001 79.3171 71.0027 79.3171 65.4902V52.534C79.3171 47.0226 74.8042 42.5258 69.2789 42.5241C69.2789 42.524 69.2788 42.524 69.2788 42.5239L69.074 42.075L69.0741 42.075L69.0707 42.0678C68.9702 41.8563 68.8669 41.6387 68.7627 41.419C68.2567 40.3525 67.7284 39.2391 67.381 38.5466L67.379 38.5426C66.2913 36.4215 64.3974 35.2191 62.0809 35.1953V35.1953H62.0758L51.7684 35.1953L51.7633 35.1953C49.4446 35.2192 47.5738 36.4237 46.4872 38.5426L46.4872 38.5426L46.4852 38.5466C46.0988 39.3168 45.4767 40.6242 44.9174 41.7997Z" stroke="url(#paint1_linear_590_1112)" stroke-linecap="round" stroke-linejoin="round"/>
</g>
<g filter="url(#filter2_bd_590_1112)">
<mask id="path-7-inside-1_590_1112" fill="white">
<path fill-rule="evenodd" clip-rule="evenodd" d="M67.2404 51.1382C67.2404 52.2288 68.1157 53.1013 69.2099 53.1013C70.3041 53.1013 71.2014 52.2288 71.2014 51.1382C71.2014 50.0476 70.3041 49.1533 69.2099 49.1533C68.1157 49.1533 67.2404 50.0476 67.2404 51.1382ZM62.9949 64.3125C61.4412 65.8612 59.2965 66.8209 56.9331 66.8209C54.6353 66.8209 52.4906 65.9266 50.8493 64.3125C49.2299 62.6766 48.3327 60.5391 48.3327 58.2489C48.3108 55.9804 49.208 53.8429 50.8274 52.207C52.4687 50.5711 54.6353 49.6768 56.9331 49.6768C59.2309 49.6768 61.3974 50.5711 63.0168 52.1852C64.6362 53.8211 65.5335 55.9804 65.5335 58.2489C65.5116 60.6263 64.5487 62.7639 62.9949 64.3125ZM56.9331 52.9485C55.5106 52.9485 54.1757 53.4938 53.1471 54.519C52.1405 55.5223 51.5934 56.8528 51.6152 58.227V58.2488C51.6152 59.6665 52.1623 60.9971 53.169 62.0004C54.1757 63.0037 55.5106 63.549 56.9331 63.549C59.8655 63.549 62.229 61.1715 62.2509 58.2488C62.2509 56.831 61.7038 55.5005 60.6971 54.4971C59.6904 53.4938 58.3555 52.9485 56.9331 52.9485Z"/>
</mask>
<path fill-rule="evenodd" clip-rule="evenodd" d="M67.2404 51.1382C67.2404 52.2288 68.1157 53.1013 69.2099 53.1013C70.3041 53.1013 71.2014 52.2288 71.2014 51.1382C71.2014 50.0476 70.3041 49.1533 69.2099 49.1533C68.1157 49.1533 67.2404 50.0476 67.2404 51.1382ZM62.9949 64.3125C61.4412 65.8612 59.2965 66.8209 56.9331 66.8209C54.6353 66.8209 52.4906 65.9266 50.8493 64.3125C49.2299 62.6766 48.3327 60.5391 48.3327 58.2489C48.3108 55.9804 49.208 53.8429 50.8274 52.207C52.4687 50.5711 54.6353 49.6768 56.9331 49.6768C59.2309 49.6768 61.3974 50.5711 63.0168 52.1852C64.6362 53.8211 65.5335 55.9804 65.5335 58.2489C65.5116 60.6263 64.5487 62.7639 62.9949 64.3125ZM56.9331 52.9485C55.5106 52.9485 54.1757 53.4938 53.1471 54.519C52.1405 55.5223 51.5934 56.8528 51.6152 58.227V58.2488C51.6152 59.6665 52.1623 60.9971 53.169 62.0004C54.1757 63.0037 55.5106 63.549 56.9331 63.549C59.8655 63.549 62.229 61.1715 62.2509 58.2488C62.2509 56.831 61.7038 55.5005 60.6971 54.4971C59.6904 53.4938 58.3555 52.9485 56.9331 52.9485Z" fill="url(#paint2_linear_590_1112)"/>
<path d="M62.9949 64.3125L62.8538 64.1709L62.9949 64.3125ZM50.8493 64.3125L50.7072 64.4532L50.7091 64.4551L50.8493 64.3125ZM48.3327 58.2489H48.5327L48.5327 58.2469L48.3327 58.2489ZM50.8274 52.207L50.6863 52.0653L50.6853 52.0663L50.8274 52.207ZM63.0168 52.1852L63.159 52.0445L63.158 52.0435L63.0168 52.1852ZM65.5335 58.2489L65.7335 58.2507V58.2489H65.5335ZM53.1471 54.519L53.2883 54.6606L53.1471 54.519ZM51.6152 58.227H51.8153L51.8152 58.2238L51.6152 58.227ZM53.169 62.0004L53.0278 62.142L53.169 62.0004ZM62.2509 58.2488L62.4509 58.2503V58.2488H62.2509ZM60.6971 54.4971L60.5559 54.6388L60.6971 54.4971ZM69.2099 52.9012C68.2256 52.9012 67.4404 52.1177 67.4404 51.1382H67.0404C67.0404 52.3399 68.0059 53.3012 69.2099 53.3012V52.9012ZM71.0014 51.1382C71.0014 52.1148 70.1972 52.9012 69.2099 52.9012V53.3012C70.4111 53.3012 71.4014 52.3427 71.4014 51.1382H71.0014ZM69.2099 49.3533C70.1943 49.3533 71.0014 50.1587 71.0014 51.1382H71.4014C71.4014 49.9365 70.4139 48.9533 69.2099 48.9533V49.3533ZM67.4404 51.1382C67.4404 50.1558 68.2284 49.3533 69.2099 49.3533V48.9533C68.003 48.9533 67.0404 49.9394 67.0404 51.1382H67.4404ZM56.9331 67.0209C59.3517 67.0209 61.5465 66.0385 63.1361 64.4542L62.8538 64.1709C61.3358 65.6838 59.2413 66.6209 56.9331 66.6209V67.0209ZM50.7091 64.4551C52.3871 66.1053 54.5818 67.0209 56.9331 67.0209V66.6209C54.6887 66.6209 52.5942 65.7479 50.9896 64.1699L50.7091 64.4551ZM48.1327 58.2489C48.1327 60.593 49.0516 62.7808 50.7072 64.4532L50.9915 64.1718C49.4082 62.5725 48.5327 60.4852 48.5327 58.2489H48.1327ZM50.6853 52.0663C49.0299 53.7385 48.1103 55.9268 48.1327 58.2508L48.5327 58.2469C48.5113 56.0341 49.3861 53.9473 50.9696 52.3477L50.6853 52.0663ZM56.9331 49.4768C54.5821 49.4768 52.3649 50.3922 50.6863 52.0653L50.9686 52.3487C52.5726 50.75 54.6884 49.8768 56.9331 49.8768V49.4768ZM63.158 52.0435C61.501 50.392 59.2836 49.4768 56.9331 49.4768V49.8768C59.1782 49.8768 61.2938 50.7503 62.8756 52.3268L63.158 52.0435ZM65.7335 58.2489C65.7335 55.9268 64.8148 53.7171 63.159 52.0445L62.8747 52.3259C64.4577 53.925 65.3335 56.0341 65.3335 58.2489H65.7335ZM63.1361 64.4542C64.726 62.8696 65.7111 60.6822 65.7335 58.2507L65.3335 58.247C65.3121 60.5704 64.3714 62.6582 62.8538 64.1709L63.1361 64.4542ZM53.2883 54.6606C54.2794 53.6728 55.5635 53.1485 56.9331 53.1485V52.7485C55.4577 52.7485 54.072 53.3148 53.0059 54.3773L53.2883 54.6606ZM51.8152 58.2238C51.7942 56.9055 52.3189 55.6268 53.2883 54.6606L53.0059 54.3773C51.962 55.4178 51.3925 56.8001 51.4153 58.2301L51.8152 58.2238ZM51.8152 58.2488V58.227H51.4152V58.2488H51.8152ZM53.3102 61.8587C52.3415 60.8932 51.8152 59.6138 51.8152 58.2488H51.4152C51.4152 59.7192 51.9832 61.1009 53.0278 62.142L53.3102 61.8587ZM56.9331 63.349C55.5629 63.349 54.2789 62.8243 53.3102 61.8587L53.0278 62.142C54.0724 63.1832 55.4583 63.749 56.9331 63.749V63.349ZM62.0509 58.2473C62.0298 61.0615 59.7543 63.349 56.9331 63.349V63.749C59.9767 63.749 62.4282 61.2816 62.4509 58.2503L62.0509 58.2473ZM60.5559 54.6388C61.5246 55.6043 62.0509 56.8837 62.0509 58.2488H62.4509C62.4509 56.7783 61.8829 55.3967 60.8383 54.3555L60.5559 54.6388ZM56.9331 53.1485C58.3032 53.1485 59.5872 53.6733 60.5559 54.6388L60.8383 54.3555C59.7937 53.3143 58.4078 52.7485 56.9331 52.7485V53.1485Z" fill="url(#paint3_linear_590_1112)" fill-opacity="0.5" mask="url(#path-7-inside-1_590_1112)"/>
</g>
<path d="M74.4773 25H70.0862C69.875 25 69.6866 25.1327 69.6154 25.3315L67.2937 31.8181C67.1771 32.1438 67.4185 32.4866 67.7644 32.4866H70.3595C70.7066 32.4866 70.9481 32.8317 70.8293 33.1578L69.7692 36.0666C69.5828 36.578 70.2323 36.9769 70.6042 36.5793L75.6461 31.1892C75.9449 30.8697 75.7184 30.3476 75.2809 30.3476H73.0299C72.641 30.3476 72.401 29.9232 72.6014 29.5899L74.9058 25.7577C75.1062 25.4244 74.8661 25 74.4773 25Z" fill="url(#paint4_linear_590_1112)"/>
<defs>
<filter id="filter0_f_590_1112" x="13.8179" y="17.6143" width="61.5317" height="58.1172" filterUnits="userSpaceOnUse" color-interpolation-filters="sRGB">
<feFlood flood-opacity="0" result="BackgroundImageFix"/>
<feBlend mode="normal" in="SourceGraphic" in2="BackgroundImageFix" result="shape"/>
<feGaussianBlur stdDeviation="8.5" result="effect1_foregroundBlur_590_1112"/>
</filter>
<filter id="filter1_b_590_1112" x="19.0491" y="19.6953" width="75.768" height="71.3047" filterUnits="userSpaceOnUse" color-interpolation-filters="sRGB">
<feFlood flood-opacity="0" result="BackgroundImageFix"/>
<feGaussianBlur in="BackgroundImage" stdDeviation="7.5"/>
<feComposite in2="SourceAlpha" operator="in" result="effect1_backgroundBlur_590_1112"/>
<feBlend mode="normal" in="SourceGraphic" in2="effect1_backgroundBlur_590_1112" result="shape"/>
</filter>
<filter id="filter2_bd_590_1112" x="33.3323" y="34.1533" width="52.8691" height="47.668" filterUnits="userSpaceOnUse" color-interpolation-filters="sRGB">
<feFlood flood-opacity="0" result="BackgroundImageFix"/>
<feGaussianBlur in="BackgroundImage" stdDeviation="7.5"/>
<feComposite in2="SourceAlpha" operator="in" result="effect1_backgroundBlur_590_1112"/>
<feColorMatrix in="SourceAlpha" type="matrix" values="0 0 0 0 0 0 0 0 0 0 0 0 0 0 0 0 0 0 127 0" result="hardAlpha"/>
<feOffset dx="5" dy="5"/>
<feGaussianBlur stdDeviation="5"/>
<feColorMatrix type="matrix" values="0 0 0 0 0.7 0 0 0 0 0.189583 0 0 0 0 0.285526 0 0 0 1 0"/>
<feBlend mode="normal" in2="effect1_backgroundBlur_590_1112" result="effect2_dropShadow_590_1112"/>
<feBlend mode="normal" in="SourceGraphic" in2="effect2_dropShadow_590_1112" result="shape"/>
</filter>
<linearGradient id="paint0_linear_590_1112" x1="23.6999" y1="49.0012" x2="73.7637" y2="29.2743" gradientUnits="userSpaceOnUse">
<stop stop-color="#F54A6C"/>
<stop offset="1" stop-color="#F65777" stop-opacity="0.7"/>
</linearGradient>
<linearGradient id="paint1_linear_590_1112" x1="42.0162" y1="40.2744" x2="76.7875" y2="77.008" gradientUnits="userSpaceOnUse">
<stop stop-color="white" stop-opacity="0.25"/>
<stop offset="1" stop-color="white" stop-opacity="0.15"/>
</linearGradient>
<linearGradient id="paint2_linear_590_1112" x1="69.58" y1="52.3437" x2="44.1242" y2="53.418" gradientUnits="userSpaceOnUse">
<stop stop-color="white"/>
<stop offset="1" stop-color="white" stop-opacity="0.2"/>
</linearGradient>
<linearGradient id="paint3_linear_590_1112" x1="70.2215" y1="58.3608" x2="48.0137" y2="59.5583" gradientUnits="userSpaceOnUse">
<stop stop-color="white"/>
<stop offset="1" stop-color="white" stop-opacity="0"/>
</linearGradient>
<linearGradient id="paint4_linear_590_1112" x1="66.3851" y1="29.8765" x2="81.7732" y2="29.8765" gradientUnits="userSpaceOnUse">
<stop stop-color="#F54A6C"/>
<stop offset="1" stop-color="#F65777" stop-opacity="0.7"/>
</linearGradient>
</defs>
</svg>
