<svg width="20" height="20" viewBox="0 0 20 20" fill="none" xmlns="http://www.w3.org/2000/svg">
<path d="M6.3634 0H2.72717C2.00377 0 1.31024 0.287324 0.798672 0.798672C0.287324 1.31022 0 2.00377 0 2.72717V6.3634C0 7.0868 0.287324 7.78033 0.798672 8.2919C1.31022 8.80325 2.00377 9.09057 2.72717 9.09057H6.3634C7.0868 9.09057 7.78033 8.80325 8.2919 8.2919C8.80325 7.78035 9.09057 7.0868 9.09057 6.3634V2.72717C9.09057 2.00377 8.80325 1.31024 8.2919 0.798672C7.78035 0.287324 7.0868 0 6.3634 0ZM7.27246 6.3634C7.27246 6.60446 7.17668 6.83579 7.00623 7.00623C6.83579 7.17668 6.60446 7.27246 6.3634 7.27246H2.72717C2.48611 7.27246 2.25478 7.17668 2.08434 7.00623C1.91389 6.83579 1.81811 6.60446 1.81811 6.3634V2.72717C1.81811 2.48611 1.91389 2.25478 2.08434 2.08434C2.25478 1.91389 2.48611 1.81811 2.72717 1.81811H6.3634C6.60446 1.81811 6.83579 1.91389 7.00623 2.08434C7.17668 2.25478 7.27246 2.48611 7.27246 2.72717V6.3634Z" fill="white"/>
<path d="M6.3634 10.9062H2.72717C2.00377 10.9062 1.31024 11.1936 0.798672 11.7049C0.287324 12.2165 0 12.91 0 13.6334V17.2697C0 17.9931 0.287324 18.6866 0.798672 19.1982C1.31022 19.7095 2.00377 19.9968 2.72717 19.9968H6.3634C7.0868 19.9968 7.78033 19.7095 8.2919 19.1982C8.80325 18.6866 9.09057 17.9931 9.09057 17.2697V13.6334C9.09057 12.91 8.80325 12.2165 8.2919 11.7049C7.78035 11.1936 7.0868 10.9062 6.3634 10.9062ZM7.27246 17.2697C7.27246 17.5107 7.17668 17.742 7.00623 17.9125C6.83579 18.0829 6.60446 18.1787 6.3634 18.1787H2.72717C2.48611 18.1787 2.25478 18.0829 2.08434 17.9125C1.91389 17.742 1.81811 17.5107 1.81811 17.2697V13.6334C1.81811 13.3924 1.91389 13.161 2.08434 12.9906C2.25478 12.8201 2.48611 12.7244 2.72717 12.7244H6.3634C6.60446 12.7244 6.83579 12.8201 7.00623 12.9906C7.17668 13.161 7.27246 13.3924 7.27246 13.6334V17.2697Z" fill="white"/>
<path d="M17.2728 10.9062H13.6366C12.9132 10.9062 12.2197 11.1936 11.7081 11.7049C11.1967 12.2165 10.9094 12.91 10.9094 13.6334V17.2697C10.9094 17.9931 11.1967 18.6866 11.7081 19.1982C12.2196 19.7095 12.9132 19.9968 13.6366 19.9968H17.2728C17.9962 19.9968 18.6898 19.7095 19.2013 19.1982C19.7127 18.6866 20 17.9931 20 17.2697V13.6334C20 12.91 19.7127 12.2165 19.2013 11.7049C18.6898 11.1936 17.9962 10.9062 17.2728 10.9062ZM18.1819 17.2697C18.1819 17.5107 18.0861 17.742 17.9157 17.9125C17.7452 18.0829 17.5139 18.1787 17.2728 18.1787H13.6366C13.3955 18.1787 13.1642 18.0829 12.9938 17.9125C12.8233 17.742 12.7275 17.5107 12.7275 17.2697V13.6334C12.7275 13.3924 12.8233 13.161 12.9938 12.9906C13.1642 12.8201 13.3955 12.7244 13.6366 12.7244H17.2728C17.5139 12.7244 17.7452 12.8201 17.9157 12.9906C18.0861 13.161 18.1819 13.3924 18.1819 13.6334V17.2697Z" fill="white"/>
<path d="M17.2728 0H13.6366C12.9132 0 12.2197 0.287324 11.7081 0.798672C11.1967 1.31022 10.9094 2.00377 10.9094 2.72717V6.3634C10.9094 7.0868 11.1967 7.78033 11.7081 8.2919C12.2196 8.80325 12.9132 9.09057 13.6366 9.09057H17.2728C17.9962 9.09057 18.6898 8.80325 19.2013 8.2919C19.7127 7.78035 20 7.0868 20 6.3634V2.72717C20 2.00377 19.7127 1.31024 19.2013 0.798672C18.6898 0.287324 17.9962 0 17.2728 0ZM18.1819 6.3634C18.1819 6.60446 18.0861 6.83579 17.9157 7.00623C17.7452 7.17668 17.5139 7.27246 17.2728 7.27246H13.6366C13.3955 7.27246 13.1642 7.17668 12.9938 7.00623C12.8233 6.83579 12.7275 6.60446 12.7275 6.3634V2.72717C12.7275 2.48611 12.8233 2.25478 12.9938 2.08434C13.1642 1.91389 13.3955 1.81811 13.6366 1.81811H17.2728C17.5139 1.81811 17.7452 1.91389 17.9157 2.08434C18.0861 2.25478 18.1819 2.48611 18.1819 2.72717V6.3634Z" fill="white"/>
</svg>
