<svg width="267" height="158" viewBox="0 0 267 158" fill="none" xmlns="http://www.w3.org/2000/svg">
<rect x="85" width="95.5271" height="101" rx="15" fill="#FFF1F4"/>
<path fill-rule="evenodd" clip-rule="evenodd" d="M97.0352 76.6118C95.0995 71.386 94.389 65.2622 97.6354 60.7327C100.92 56.15 107.047 53.962 112.61 54.8816C117.321 55.6604 118.968 61.0545 121.983 64.7578C124.811 68.2316 129.117 70.8055 129.217 75.2836C129.343 80.8953 127.565 87.3208 122.545 89.8321C117.585 92.3137 112.044 88.8904 107.12 86.3383C102.757 84.0774 98.7419 81.2195 97.0352 76.6118Z" fill="#FBE5E9"/>
<path fill-rule="evenodd" clip-rule="evenodd" d="M169.119 24.7544C171.054 29.9802 171.765 36.104 168.518 40.6335C165.234 45.2162 159.107 47.4042 153.544 46.4846C148.833 45.7058 147.185 40.3117 144.171 36.6084C141.343 33.1346 137.037 30.5607 136.936 26.0826C136.81 20.4709 138.589 14.0454 143.609 11.5341C148.569 9.05252 154.109 12.4758 159.034 15.0279C163.397 17.2888 167.412 20.1467 169.119 24.7544Z" fill="#FBE5E9"/>
<rect x="111.55" y="23.127" width="46.4972" height="59.3025" rx="2.7457" fill="url(#paint0_linear_590_1142)"/>
<g filter="url(#filter0_d_590_1142)">
<path d="M149.819 78.8494H112.609C110.016 78.8494 107.966 76.7287 107.966 74.1838V22.4372C107.966 19.8317 110.077 17.7715 112.609 17.7715H136.19L154.463 36.6766V74.1838C154.463 76.7893 152.352 78.8494 149.819 78.8494Z" fill="white"/>
</g>
<rect x="116.547" y="38.8057" width="8.80685" height="8.80685" rx="2.7457" fill="url(#paint1_linear_590_1142)"/>
<line x1="130.445" y1="39.9193" x2="145.552" y2="39.9193" stroke="url(#paint2_linear_590_1142)" stroke-width="0.915235" stroke-linecap="round"/>
<line x1="130.445" y1="46.3383" x2="145.552" y2="46.3383" stroke="url(#paint3_linear_590_1142)" stroke-width="0.915235" stroke-linecap="round"/>
<line x1="117.51" y1="52.9496" x2="145.552" y2="52.9496" stroke="url(#paint4_linear_590_1142)" stroke-width="0.915235" stroke-linecap="round"/>
<line x1="117.51" y1="59.6098" x2="145.552" y2="59.6098" stroke="url(#paint5_linear_590_1142)" stroke-width="0.915235" stroke-linecap="round"/>
<line x1="117.51" y1="66.0287" x2="145.552" y2="66.0287" stroke="url(#paint6_linear_590_1142)" stroke-width="0.915235" stroke-linecap="round"/>
<path d="M136.189 17.7715V32.3139C136.189 34.7376 138.119 36.6766 140.532 36.6766H154.463L136.189 17.7715Z" fill="#FFEBEF"/>
<path d="M121.259 24.3795H105.321C104.488 24.3795 103.8 23.6881 103.8 22.851V17.3557C103.8 16.5186 104.488 15.8271 105.321 15.8271H121.259C122.092 15.8271 122.78 16.5186 122.78 17.3557V22.851C122.78 23.6881 122.092 24.3795 121.259 24.3795Z" fill="url(#paint7_linear_590_1142)"/>
<path d="M111.226 19.7574C111.226 20.4852 110.682 20.9219 109.813 20.9219H109.161V21.8318H108.4V18.5928H109.813C110.682 18.5928 111.226 19.0295 111.226 19.7574ZM110.465 19.7574C110.465 19.3934 110.248 19.1751 109.777 19.1751H109.161V20.3033H109.777C110.248 20.3033 110.465 20.1213 110.465 19.7574Z" fill="white"/>
<path d="M111.769 18.5928H113.218C114.268 18.5928 114.993 19.2479 114.993 20.1941C114.993 21.1767 114.268 21.7954 113.218 21.7954H111.769V18.5928ZM113.181 21.2131C113.833 21.2131 114.232 20.8128 114.232 20.1941C114.232 19.5754 113.797 19.1751 113.181 19.1751H112.493V21.1767H113.181V21.2131Z" fill="white"/>
<path d="M116.297 19.1751V20.0485H117.782V20.6672H116.297V21.8318H115.536V18.5928H117.963V19.2115H116.297V19.1751Z" fill="white"/>
<path d="M2.06352 133.828H15.9235V136.936H6.43152V141.108H14.9995V144.216H6.43152V148.892H16.2035V152H2.06352V133.828ZM22.8214 152.28C21.552 152.28 20.6 152.168 19.9654 151.944C19.3494 151.701 18.9107 151.281 18.6494 150.684C18.4067 150.068 18.2854 149.153 18.2854 147.94C18.2854 146.857 18.416 146.008 18.6774 145.392C18.9574 144.776 19.396 144.337 19.9934 144.076C20.6094 143.796 21.4494 143.656 22.5134 143.656H27.1054V142.732C27.1054 142.153 27.0214 141.724 26.8534 141.444C26.704 141.164 26.4147 140.968 25.9854 140.856C25.5747 140.744 24.9494 140.688 24.1094 140.688C22.952 140.688 21.3654 140.8 19.3494 141.024V138.448C20.824 138.261 22.5507 138.168 24.5294 138.168C26.2654 138.168 27.6 138.299 28.5334 138.56C29.4854 138.821 30.1667 139.269 30.5774 139.904C30.988 140.539 31.1934 141.463 31.1934 142.676V152H27.1894V150.768C26.872 151.309 26.4427 151.692 25.9014 151.916C25.36 152.159 24.3334 152.28 22.8214 152.28ZM24.4174 149.732C25.2387 149.732 25.8267 149.704 26.1814 149.648C26.4427 149.611 26.62 149.555 26.7134 149.48C26.8254 149.405 26.9187 149.284 26.9934 149.116C27.068 148.985 27.1054 148.789 27.1054 148.528V145.896H24.3054C23.6707 145.896 23.2227 145.943 22.9614 146.036C22.7 146.111 22.5227 146.279 22.4294 146.54C22.336 146.783 22.2894 147.221 22.2894 147.856C22.2894 148.472 22.336 148.901 22.4294 149.144C22.5227 149.387 22.7 149.545 22.9614 149.62C23.2414 149.695 23.7267 149.732 24.4174 149.732ZM39.858 152.28C38.402 152.28 36.6194 152.14 34.51 151.86V149.144C37.1047 149.536 38.906 149.732 39.914 149.732C40.7727 149.732 41.4074 149.648 41.818 149.48C42.2287 149.312 42.434 149.004 42.434 148.556V147.716C42.434 147.249 42.3034 146.923 42.042 146.736C41.7807 146.531 41.2674 146.428 40.502 146.428H38.738C37.3007 146.428 36.19 146.148 35.406 145.588C34.622 145.009 34.23 144.169 34.23 143.068V141.416C34.23 140.24 34.79 139.409 35.91 138.924C37.03 138.42 38.7194 138.168 40.978 138.168C41.874 138.168 43.4794 138.252 45.794 138.42V141.024C42.882 140.8 41.2394 140.688 40.866 140.688C39.7647 140.688 39.046 140.763 38.71 140.912C38.4114 141.08 38.262 141.388 38.262 141.836V142.564C38.262 142.807 38.3834 143.021 38.626 143.208C38.8687 143.376 39.2234 143.46 39.69 143.46H41.482C44.8047 143.46 46.466 144.543 46.466 146.708V148.416C46.466 149.069 46.3447 149.639 46.102 150.124C45.8594 150.609 45.542 150.992 45.15 151.272C44.7767 151.533 44.2914 151.739 43.694 151.888C43.1154 152.037 42.5087 152.14 41.874 152.196C41.2954 152.252 40.6234 152.28 39.858 152.28ZM53.337 151.888L47.933 138.448H52.385L55.437 148.024L58.209 138.448H62.437L55.017 157.824H50.873L53.337 151.888ZM77.6871 152.28C76.9965 152.28 76.4178 152.252 75.9511 152.196C75.4845 152.14 75.0178 152.028 74.5511 151.86C74.0285 151.692 73.5991 151.459 73.2631 151.16C72.9458 150.861 72.6845 150.451 72.4791 149.928C72.2551 149.387 72.1431 148.761 72.1431 148.052V140.968H69.3991V138.448H72.1431V134.528H76.2311V138.448H79.9551V140.968H76.2311V147.352C76.2311 148.005 76.2871 148.5 76.3991 148.836C76.5111 149.153 76.7258 149.387 77.0431 149.536C77.3605 149.667 77.8458 149.732 78.4991 149.732C78.7605 149.732 79.2458 149.685 79.9551 149.592V152.14C79.0778 152.233 78.3218 152.28 77.6871 152.28ZM88.8095 152.28C87.9695 152.28 87.2788 152.252 86.7375 152.196C86.1962 152.14 85.6175 152.028 85.0015 151.86C84.3295 151.673 83.7882 151.412 83.3775 151.076C82.9668 150.721 82.6215 150.227 82.3415 149.592C82.0615 148.976 81.9215 148.229 81.9215 147.352V143.348C81.9215 142.452 82.0615 141.668 82.3415 140.996C82.6215 140.324 82.9855 139.801 83.4335 139.428C83.8255 139.111 84.3388 138.849 84.9735 138.644C85.6268 138.42 86.2615 138.28 86.8775 138.224C87.5868 138.187 88.2308 138.168 88.8095 138.168C89.6682 138.168 90.3495 138.196 90.8535 138.252C91.3762 138.289 91.9455 138.401 92.5615 138.588C93.2335 138.793 93.7748 139.073 94.1855 139.428C94.6148 139.783 94.9788 140.287 95.2775 140.94C95.5575 141.612 95.6975 142.415 95.6975 143.348V147.352C95.6975 148.192 95.5575 148.929 95.2775 149.564C95.0162 150.199 94.6708 150.693 94.2415 151.048C93.8682 151.365 93.3548 151.627 92.7015 151.832C92.0668 152.019 91.4415 152.14 90.8255 152.196C90.2655 152.252 89.5935 152.28 88.8095 152.28ZM88.8095 149.732C89.5748 149.732 90.1535 149.676 90.5455 149.564C90.9375 149.433 91.2082 149.237 91.3575 148.976C91.5255 148.715 91.6095 148.332 91.6095 147.828V142.704C91.6095 141.957 91.4135 141.435 91.0215 141.136C90.6295 140.837 89.8922 140.688 88.8095 140.688C87.7268 140.688 86.9895 140.837 86.5975 141.136C86.2055 141.435 86.0095 141.957 86.0095 142.704V147.828C86.0095 148.332 86.0842 148.715 86.2335 148.976C86.4015 149.237 86.6815 149.433 87.0735 149.564C87.4655 149.676 88.0442 149.732 88.8095 149.732ZM113.541 152.28C112.72 152.28 111.982 152.243 111.329 152.168C110.694 152.093 109.994 151.953 109.229 151.748C108.37 151.524 107.661 151.235 107.101 150.88C106.541 150.507 106.074 149.993 105.701 149.34C105.309 148.687 105.113 147.912 105.113 147.016V139.036C105.113 135.377 107.922 133.548 113.541 133.548C114.978 133.548 116.901 133.753 119.309 134.164V137.44C117.144 136.917 115.24 136.656 113.597 136.656C112.906 136.656 112.365 136.675 111.973 136.712C111.6 136.749 111.208 136.843 110.797 136.992C109.92 137.291 109.481 137.953 109.481 138.98V146.708C109.481 148.351 110.984 149.172 113.989 149.172C115.277 149.172 117.088 148.901 119.421 148.36V151.664C117.424 152.075 115.464 152.28 113.541 152.28ZM128.54 152.28C127.7 152.28 127.009 152.252 126.468 152.196C125.927 152.14 125.348 152.028 124.732 151.86C124.06 151.673 123.519 151.412 123.108 151.076C122.697 150.721 122.352 150.227 122.072 149.592C121.792 148.976 121.652 148.229 121.652 147.352V143.348C121.652 142.452 121.792 141.668 122.072 140.996C122.352 140.324 122.716 139.801 123.164 139.428C123.556 139.111 124.069 138.849 124.704 138.644C125.357 138.42 125.992 138.28 126.608 138.224C127.317 138.187 127.961 138.168 128.54 138.168C129.399 138.168 130.08 138.196 130.584 138.252C131.107 138.289 131.676 138.401 132.292 138.588C132.964 138.793 133.505 139.073 133.916 139.428C134.345 139.783 134.709 140.287 135.008 140.94C135.288 141.612 135.428 142.415 135.428 143.348V147.352C135.428 148.192 135.288 148.929 135.008 149.564C134.747 150.199 134.401 150.693 133.972 151.048C133.599 151.365 133.085 151.627 132.432 151.832C131.797 152.019 131.172 152.14 130.556 152.196C129.996 152.252 129.324 152.28 128.54 152.28ZM128.54 149.732C129.305 149.732 129.884 149.676 130.276 149.564C130.668 149.433 130.939 149.237 131.088 148.976C131.256 148.715 131.34 148.332 131.34 147.828V142.704C131.34 141.957 131.144 141.435 130.752 141.136C130.36 140.837 129.623 140.688 128.54 140.688C127.457 140.688 126.72 140.837 126.328 141.136C125.936 141.435 125.74 141.957 125.74 142.704V147.828C125.74 148.332 125.815 148.715 125.964 148.976C126.132 149.237 126.412 149.433 126.804 149.564C127.196 149.676 127.775 149.732 128.54 149.732ZM138.614 138.448H142.646V140.1C142.964 138.812 144.41 138.168 146.986 138.168C148.722 138.168 149.936 138.485 150.626 139.12C151.336 139.736 151.69 140.716 151.69 142.06V152H147.602V142.592C147.602 142.069 147.546 141.677 147.434 141.416C147.341 141.155 147.136 140.968 146.818 140.856C146.52 140.744 146.053 140.688 145.418 140.688C144.616 140.688 144.028 140.744 143.654 140.856C143.281 140.949 143.029 141.127 142.898 141.388C142.768 141.649 142.702 142.051 142.702 142.592V152H138.614V138.448ZM153.475 138.448H157.815L160.783 147.828L163.639 138.448H167.755L162.771 152H158.627L153.475 138.448ZM176.344 152.28C171.547 152.28 169.148 150.815 169.148 147.884V143.012C169.148 141.313 169.689 140.081 170.772 139.316C171.873 138.551 173.563 138.168 175.84 138.168C177.987 138.168 179.555 138.541 180.544 139.288C181.552 140.016 182.056 141.257 182.056 143.012V146.316H173.264V147.548C173.264 148.332 173.544 148.892 174.104 149.228C174.664 149.564 175.672 149.732 177.128 149.732C178.472 149.732 179.984 149.536 181.664 149.144V151.748C180.003 152.103 178.229 152.28 176.344 152.28ZM178.164 143.992V142.032C178.164 141.584 177.977 141.248 177.604 141.024C177.249 140.8 176.643 140.688 175.784 140.688C174.795 140.688 174.132 140.8 173.796 141.024C173.441 141.267 173.264 141.603 173.264 142.032V143.992H178.164ZM185.181 138.448H189.073V140.828C189.073 140.399 189.25 139.979 189.605 139.568C189.959 139.157 190.407 138.821 190.949 138.56C191.509 138.299 192.059 138.168 192.601 138.168H194.057V141.556H192.657C191.499 141.556 190.641 141.733 190.081 142.088C189.539 142.443 189.269 143.031 189.269 143.852V152H185.181V138.448ZM203.086 152.28C202.395 152.28 201.816 152.252 201.35 152.196C200.883 152.14 200.416 152.028 199.95 151.86C199.427 151.692 198.998 151.459 198.662 151.16C198.344 150.861 198.083 150.451 197.878 149.928C197.654 149.387 197.542 148.761 197.542 148.052V140.968H194.798V138.448H197.542V134.528H201.63V138.448H205.354V140.968H201.63V147.352C201.63 148.005 201.686 148.5 201.798 148.836C201.91 149.153 202.124 149.387 202.442 149.536C202.759 149.667 203.244 149.732 203.898 149.732C204.159 149.732 204.644 149.685 205.354 149.592V152.14C204.476 152.233 203.72 152.28 203.086 152.28ZM214.333 133.828H221.613C223.386 133.828 224.786 133.949 225.813 134.192C226.858 134.435 227.614 134.864 228.081 135.48C228.566 136.077 228.809 136.917 228.809 138V141.444C228.809 142.639 228.548 143.572 228.025 144.244C227.521 144.916 226.709 145.392 225.589 145.672C224.488 145.952 222.994 146.092 221.109 146.092H218.701V152H214.333V133.828ZM221.473 143.096C222.612 143.096 223.414 142.965 223.881 142.704C224.348 142.424 224.581 141.957 224.581 141.304V138.392C224.581 137.795 224.357 137.403 223.909 137.216C223.48 137.029 222.649 136.936 221.417 136.936H218.701V143.096H221.473ZM231.888 133.828H239.616C241.744 133.828 243.424 133.996 244.656 134.332C245.888 134.649 246.793 135.209 247.372 136.012C247.95 136.815 248.24 137.925 248.24 139.344V146.736C248.24 148.117 247.969 149.191 247.428 149.956C246.886 150.703 246 151.235 244.768 151.552C243.536 151.851 241.828 152 239.644 152H231.888V133.828ZM239.448 148.892C240.642 148.892 241.538 148.845 242.136 148.752C242.752 148.64 243.19 148.435 243.452 148.136C243.732 147.837 243.872 147.371 243.872 146.736V139.26C243.872 138.401 243.526 137.804 242.836 137.468C242.164 137.113 241.081 136.936 239.588 136.936H236.256V148.892H239.448ZM251.767 133.828H265.907V136.936H256.135V141.388H264.983V144.496H256.135V152H251.767V133.828Z" fill="white"/>
<defs>
<filter id="filter0_d_590_1142" x="99.5159" y="11.0116" width="63.397" height="77.9778" filterUnits="userSpaceOnUse" color-interpolation-filters="sRGB">
<feFlood flood-opacity="0" result="BackgroundImageFix"/>
<feColorMatrix in="SourceAlpha" type="matrix" values="0 0 0 0 0 0 0 0 0 0 0 0 0 0 0 0 0 0 127 0" result="hardAlpha"/>
<feOffset dy="1.68996"/>
<feGaussianBlur stdDeviation="4.22491"/>
<feComposite in2="hardAlpha" operator="out"/>
<feColorMatrix type="matrix" values="0 0 0 0 0 0 0 0 0 0 0 0 0 0 0 0 0 0 0.1 0"/>
<feBlend mode="normal" in2="BackgroundImageFix" result="effect1_dropShadow_590_1142"/>
<feBlend mode="normal" in="SourceGraphic" in2="effect1_dropShadow_590_1142" result="shape"/>
</filter>
<linearGradient id="paint0_linear_590_1142" x1="108.232" y1="44.7584" x2="184.521" y2="44.7584" gradientUnits="userSpaceOnUse">
<stop stop-color="#F54A6C"/>
<stop offset="1" stop-color="#F65777" stop-opacity="0.7"/>
</linearGradient>
<linearGradient id="paint1_linear_590_1142" x1="115.918" y1="42.0181" x2="130.368" y2="42.0181" gradientUnits="userSpaceOnUse">
<stop stop-color="#F54A6C"/>
<stop offset="1" stop-color="#F65777" stop-opacity="0.7"/>
</linearGradient>
<linearGradient id="paint2_linear_590_1142" x1="130.155" y1="38.7456" x2="145.741" y2="38.7456" gradientUnits="userSpaceOnUse">
<stop stop-color="#F34A6F"/>
<stop offset="1" stop-color="#F34A6F" stop-opacity="0.3"/>
</linearGradient>
<linearGradient id="paint3_linear_590_1142" x1="130.155" y1="45.1646" x2="145.741" y2="45.1646" gradientUnits="userSpaceOnUse">
<stop stop-color="#F34A6F"/>
<stop offset="1" stop-color="#F34A6F" stop-opacity="0.3"/>
</linearGradient>
<linearGradient id="paint4_linear_590_1142" x1="117.356" y1="51.7759" x2="145.524" y2="51.7759" gradientUnits="userSpaceOnUse">
<stop stop-color="#F34A6F"/>
<stop offset="1" stop-color="#F34A6F" stop-opacity="0.3"/>
</linearGradient>
<linearGradient id="paint5_linear_590_1142" x1="117.356" y1="58.4361" x2="145.524" y2="58.4361" gradientUnits="userSpaceOnUse">
<stop stop-color="#F34A6F"/>
<stop offset="1" stop-color="#F34A6F" stop-opacity="0.3"/>
</linearGradient>
<linearGradient id="paint6_linear_590_1142" x1="117.356" y1="64.855" x2="145.524" y2="64.855" gradientUnits="userSpaceOnUse">
<stop stop-color="#F34A6F"/>
<stop offset="1" stop-color="#F34A6F" stop-opacity="0.3"/>
</linearGradient>
<linearGradient id="paint7_linear_590_1142" x1="102.445" y1="18.9468" x2="133.587" y2="18.9468" gradientUnits="userSpaceOnUse">
<stop stop-color="#F54A6C"/>
<stop offset="1" stop-color="#F65777" stop-opacity="0.7"/>
</linearGradient>
</defs>
</svg>
