<svg width="20" height="20" viewBox="0 0 20 20" fill="none" xmlns="http://www.w3.org/2000/svg">
<path d="M10.5916 1.90861C10.5142 1.8305 10.422 1.76851 10.3204 1.7262C10.2189 1.68389 10.11 1.66211 9.99997 1.66211C9.88996 1.66211 9.78104 1.68389 9.67949 1.7262C9.57794 1.76851 9.48577 1.8305 9.4083 1.90861L1.9083 9.40861C1.8302 9.48608 1.7682 9.57824 1.72589 9.67979C1.68359 9.78134 1.6618 9.89027 1.6618 10.0003C1.6618 10.1103 1.68359 10.2192 1.72589 10.3208C1.7682 10.4223 1.8302 10.5145 1.9083 10.5919C1.98617 10.6692 2.07852 10.7303 2.18005 10.7718C2.28158 10.8132 2.3903 10.8342 2.49997 10.8336H3.3333V16.6669C3.3333 17.109 3.5089 17.5329 3.82146 17.8455C4.13402 18.158 4.55794 18.3336 4.99997 18.3336H15C15.442 18.3336 15.8659 18.158 16.1785 17.8455C16.491 17.5329 16.6666 17.109 16.6666 16.6669V10.8336H17.5C17.721 10.8336 17.9329 10.7458 18.0892 10.5895C18.2455 10.4333 18.3333 10.2213 18.3333 10.0003C18.3339 9.8906 18.3129 9.78188 18.2714 9.68035C18.23 9.57882 18.1689 9.48648 18.0916 9.40861L10.5916 1.90861ZM4.99997 16.6669V8.67527L9.99997 3.67527L15 8.67527V16.6669H4.99997Z" fill="black"/>
</svg>
