<svg width="101" height="100" viewBox="0 0 101 100" fill="none" xmlns="http://www.w3.org/2000/svg">
<rect x="0.5" width="100" height="100" rx="15" fill="white"/>
<rect x="0.75" y="0.25" width="99.5" height="99.5" rx="14.75" stroke="#F54A6C" stroke-opacity="0.3" stroke-width="0.5"/>
<path d="M33.9692 31.9933L50.5836 27.5415C56.6382 25.9192 61.024 28.5657 62.7104 34.8592L67.3334 52.1127C69.0198 58.4061 66.5448 62.891 60.4902 64.5134L43.8757 68.9652C37.8212 70.5875 33.4511 67.9367 31.7648 61.6433L27.1418 44.3897C25.4554 38.0963 27.9146 33.6156 33.9692 31.9933Z" fill="url(#paint0_linear_590_1129)"/>
<g filter="url(#filter0_f_590_1129)">
<path d="M38.6412 38.3639L49.9252 35.3404C54.0373 34.2385 56.9648 35.8447 58.0196 39.7814L60.9114 50.5738C61.9663 54.5105 60.2341 57.3652 56.122 58.4671L44.838 61.4906C40.7259 62.5925 37.8092 60.9834 36.7543 57.0467L33.8625 46.2543C32.8077 42.3176 34.5291 39.4657 38.6412 38.3639Z" fill="#F54A6C" fill-opacity="0.5"/>
</g>
<g filter="url(#filter1_b_590_1129)">
<mask id="path-5-outside-1_590_1129" maskUnits="userSpaceOnUse" x="36.1027" y="34.8369" width="42" height="42" fill="black">
<rect fill="white" x="36.1027" y="34.8369" width="42" height="42"/>
<path d="M65.1828 35.8369H48.2055C41.5673 35.8369 37.1027 40.4974 37.1027 47.4293V63.4275C37.1027 70.3398 41.5673 75.0003 48.2055 75.0003H65.1828C71.821 75.0003 76.266 70.3398 76.266 63.4275V47.4293C76.266 40.4974 71.821 35.8369 65.1828 35.8369"/>
</mask>
<path d="M65.1828 35.8369H48.2055C41.5673 35.8369 37.1027 40.4974 37.1027 47.4293V63.4275C37.1027 70.3398 41.5673 75.0003 48.2055 75.0003H65.1828C71.821 75.0003 76.266 70.3398 76.266 63.4275V47.4293C76.266 40.4974 71.821 35.8369 65.1828 35.8369" fill="#F54A6C" fill-opacity="0.4"/>
<path d="M65.1828 36.8369C65.7351 36.8369 66.1828 36.3892 66.1828 35.8369C66.1828 35.2846 65.7351 34.8369 65.1828 34.8369V36.8369ZM65.1828 34.8369C64.6305 34.8369 64.1828 35.2846 64.1828 35.8369C64.1828 36.3892 64.6305 36.8369 65.1828 36.8369V34.8369ZM65.1828 34.8369H48.2055V36.8369H65.1828V34.8369ZM48.2055 34.8369C44.6436 34.8369 41.5969 36.0928 39.4426 38.3419C37.2919 40.5873 36.1027 43.7465 36.1027 47.4293H38.1027C38.1027 44.1801 39.1458 41.5432 40.8869 39.7253C42.6245 37.9113 45.1292 36.8369 48.2055 36.8369V34.8369ZM36.1027 47.4293V63.4275H38.1027V47.4293H36.1027ZM36.1027 63.4275C36.1027 67.1012 37.2923 70.2555 39.443 72.4982C41.5972 74.7444 44.6436 76.0003 48.2055 76.0003V74.0003C45.1291 74.0003 42.6242 72.9259 40.8865 71.1139C39.1453 69.2982 38.1027 66.6662 38.1027 63.4275H36.1027ZM48.2055 76.0003H65.1828V74.0003H48.2055V76.0003ZM65.1828 76.0003C68.7448 76.0003 71.7869 74.7443 73.9363 72.4972C76.082 70.2542 77.266 67.0999 77.266 63.4275H75.266C75.266 66.6674 74.2275 69.2995 72.4911 71.1148C70.7585 72.926 68.2589 74.0003 65.1828 74.0003V76.0003ZM77.266 63.4275V47.4293H75.266V63.4275H77.266ZM77.266 47.4293C77.266 43.7478 76.0825 40.5886 73.9368 38.3428C71.7872 36.0929 68.7448 34.8369 65.1828 34.8369V36.8369C68.2589 36.8369 70.7582 37.9111 72.4907 39.7244C74.227 41.5418 75.266 44.1789 75.266 47.4293H77.266Z" fill="url(#paint1_linear_590_1129)" mask="url(#path-5-outside-1_590_1129)"/>
</g>
<g filter="url(#filter2_bd_590_1129)">
<mask id="path-7-inside-2_590_1129" fill="white">
<path fill-rule="evenodd" clip-rule="evenodd" d="M44.968 48.6166C44.968 51.3265 47.1705 53.532 49.8811 53.532C52.5898 53.532 54.7943 51.3265 54.7943 48.6166C54.7943 45.9067 52.5898 43.7012 49.8811 43.7012C47.1705 43.7012 44.968 45.9067 44.968 48.6166ZM71.754 66.6559C72.4578 64.9839 72.7999 62.9549 72.1415 61.2667C71.922 60.7067 71.5938 60.1852 71.1332 59.7266C69.9251 58.5275 68.7962 57.4074 67.4537 56.5796C65.3461 55.2647 63.7189 57.1112 63.28 57.7016C62.9299 58.1735 62.6204 58.6856 62.3066 59.2047C62.2413 59.3129 62.1757 59.4214 62.1096 59.5298L62.094 59.5557C61.1605 61.1019 60.0885 62.8775 58.2403 63.9126C55.5396 65.408 53.4893 64.0303 52.0144 63.0279C51.4608 62.6546 50.923 62.3015 50.3872 62.0661C49.0665 61.496 47.8782 62.1453 46.1146 64.3854C45.1893 65.5561 44.2719 66.7168 43.3427 67.8733C42.7871 68.5652 42.9196 69.6325 43.6689 70.0951C44.8651 70.8317 46.3242 71.2274 47.9731 71.2274H64.5434C65.4786 71.2274 66.4157 71.0995 67.3094 70.8073C69.3221 70.1499 70.9196 68.6444 71.754 66.6559Z"/>
</mask>
<path fill-rule="evenodd" clip-rule="evenodd" d="M44.968 48.6166C44.968 51.3265 47.1705 53.532 49.8811 53.532C52.5898 53.532 54.7943 51.3265 54.7943 48.6166C54.7943 45.9067 52.5898 43.7012 49.8811 43.7012C47.1705 43.7012 44.968 45.9067 44.968 48.6166ZM71.754 66.6559C72.4578 64.9839 72.7999 62.9549 72.1415 61.2667C71.922 60.7067 71.5938 60.1852 71.1332 59.7266C69.9251 58.5275 68.7962 57.4074 67.4537 56.5796C65.3461 55.2647 63.7189 57.1112 63.28 57.7016C62.9299 58.1735 62.6204 58.6856 62.3066 59.2047C62.2413 59.3129 62.1757 59.4214 62.1096 59.5298L62.094 59.5557C61.1605 61.1019 60.0885 62.8775 58.2403 63.9126C55.5396 65.408 53.4893 64.0303 52.0144 63.0279C51.4608 62.6546 50.923 62.3015 50.3872 62.0661C49.0665 61.496 47.8782 62.1453 46.1146 64.3854C45.1893 65.5561 44.2719 66.7168 43.3427 67.8733C42.7871 68.5652 42.9196 69.6325 43.6689 70.0951C44.8651 70.8317 46.3242 71.2274 47.9731 71.2274H64.5434C65.4786 71.2274 66.4157 71.0995 67.3094 70.8073C69.3221 70.1499 70.9196 68.6444 71.754 66.6559Z" fill="url(#paint2_linear_590_1129)"/>
<path d="M72.1415 61.2667L72.3278 61.194L72.3277 61.1937L72.1415 61.2667ZM71.754 66.6559L71.5696 66.5783L71.5696 66.5785L71.754 66.6559ZM71.1332 59.7266L71.2743 59.5849L71.2741 59.5847L71.1332 59.7266ZM67.4537 56.5796L67.3479 56.7493L67.3488 56.7498L67.4537 56.5796ZM63.28 57.7016L63.1195 57.5823L63.1194 57.5825L63.28 57.7016ZM62.3066 59.2047L62.4778 59.3082V59.3082L62.3066 59.2047ZM62.1096 59.5298L61.9388 59.4257L61.9383 59.4265L62.1096 59.5298ZM62.0939 59.5557L62.2652 59.6591L62.0939 59.5557ZM58.2403 63.9126L58.3372 64.0876L58.3381 64.0871L58.2403 63.9126ZM52.0144 63.0279L52.1268 62.8625L52.1262 62.8621L52.0144 63.0279ZM50.3872 62.0661L50.4676 61.883L50.4665 61.8825L50.3872 62.0661ZM46.1146 64.3854L46.2715 64.5094L46.2718 64.5091L46.1146 64.3854ZM43.3427 67.8733L43.1868 67.7481L43.1867 67.7481L43.3427 67.8733ZM43.6689 70.0951L43.5639 70.2653L43.5641 70.2654L43.6689 70.0951ZM67.3094 70.8073L67.2473 70.6172L67.2472 70.6172L67.3094 70.8073ZM49.8811 53.332C47.2811 53.332 45.168 51.2162 45.168 48.6166H44.768C44.768 51.4368 47.0599 53.732 49.8811 53.732V53.332ZM54.5943 48.6166C54.5943 51.2161 52.4792 53.332 49.8811 53.332V53.732C52.7003 53.732 54.9943 51.4368 54.9943 48.6166H54.5943ZM49.8811 43.9012C52.4792 43.9012 54.5943 46.017 54.5943 48.6166H54.9943C54.9943 45.7963 52.7003 43.5012 49.8811 43.5012V43.9012ZM45.168 48.6166C45.168 46.017 47.2811 43.9012 49.8811 43.9012V43.5012C47.0599 43.5012 44.768 45.7964 44.768 48.6166H45.168ZM71.9552 61.3394C72.5867 62.9588 72.2638 64.9295 71.5696 66.5783L71.9383 66.7335C72.6519 65.0384 73.013 62.951 72.3278 61.194L71.9552 61.3394ZM70.9921 59.8684C71.4321 60.3064 71.7454 60.8041 71.9553 61.3397L72.3277 61.1937C72.0987 60.6093 71.7556 60.064 71.2743 59.5849L70.9921 59.8684ZM67.3488 56.7498C68.6682 57.5635 69.7811 58.6663 70.9923 59.8686L71.2741 59.5847C70.0692 58.3887 68.9242 57.2514 67.5587 56.4093L67.3488 56.7498ZM63.4405 57.821C63.6525 57.5357 64.147 56.9548 64.8322 56.6042C65.5051 56.2598 66.3629 56.1348 67.3479 56.7493L67.5596 56.4099C66.4369 55.7095 65.4273 55.8503 64.65 56.2481C63.885 56.6396 63.3464 57.2771 63.1195 57.5823L63.4405 57.821ZM62.4778 59.3082C62.7924 58.7876 63.0971 58.2837 63.4406 57.8208L63.1194 57.5825C62.7626 58.0632 62.4483 58.5837 62.1355 59.1013L62.4778 59.3082ZM62.2803 59.6339C62.3467 59.5251 62.4125 59.4163 62.4778 59.3082L62.1355 59.1013C62.0701 59.2095 62.0047 59.3176 61.9388 59.4257L62.2803 59.6339ZM62.2652 59.6591L62.2808 59.6332L61.9383 59.4265L61.9227 59.4523L62.2652 59.6591ZM58.3381 64.0871C60.2394 63.0222 61.3357 61.1985 62.2652 59.6591L61.9227 59.4523C60.9852 61.0053 59.9376 62.7327 58.1426 63.7381L58.3381 64.0871ZM51.9019 63.1933C52.6363 63.6924 53.5436 64.307 54.6149 64.5998C55.697 64.8956 56.9388 64.8619 58.3372 64.0876L58.1435 63.7376C56.8411 64.4587 55.7074 64.4838 54.7204 64.214C53.7226 63.9412 52.8673 63.3658 52.1268 62.8625L51.9019 63.1933ZM50.3068 62.2493C50.8237 62.4763 51.3473 62.8193 51.9025 63.1937L52.1262 62.8621C51.5742 62.4899 51.0223 62.1267 50.4676 61.883L50.3068 62.2493ZM46.2718 64.5091C47.1499 63.3937 47.8672 62.6984 48.5125 62.3476C49.142 62.0055 49.7048 61.9894 50.3079 62.2498L50.4665 61.8825C49.7489 61.5727 49.0572 61.5962 48.3215 61.9962C47.6016 62.3875 46.843 63.1369 45.9575 64.2616L46.2718 64.5091ZM43.4986 67.9986C44.4284 66.8413 45.3463 65.68 46.2715 64.5094L45.9577 64.2614C45.0323 65.4322 44.1155 66.5922 43.1868 67.7481L43.4986 67.9986ZM43.774 69.925C43.1378 69.5322 43.0102 68.6069 43.4986 67.9985L43.1867 67.7481C42.5641 68.5236 42.7014 69.7329 43.5639 70.2653L43.774 69.925ZM47.9731 71.0274C46.3564 71.0274 44.9346 70.6396 43.7738 69.9248L43.5641 70.2654C44.7956 71.0238 46.292 71.4274 47.9731 71.4274V71.0274ZM64.5434 71.0274H47.9731V71.4274H64.5434V71.0274ZM67.2472 70.6172C66.3764 70.902 65.4606 71.0274 64.5434 71.0274V71.4274C65.4966 71.4274 66.4551 71.2971 67.3716 70.9974L67.2472 70.6172ZM71.5696 66.5785C70.7568 68.5156 69.2026 69.9786 67.2473 70.6172L67.3715 70.9975C69.4416 70.3213 71.0825 68.7732 71.9384 66.7333L71.5696 66.5785Z" fill="url(#paint3_linear_590_1129)" fill-opacity="0.5" mask="url(#path-7-inside-2_590_1129)"/>
</g>
<defs>
<filter id="filter0_f_590_1129" x="14.5592" y="16.001" width="65.6545" height="64.8291" filterUnits="userSpaceOnUse" color-interpolation-filters="sRGB">
<feFlood flood-opacity="0" result="BackgroundImageFix"/>
<feBlend mode="normal" in="SourceGraphic" in2="BackgroundImageFix" result="shape"/>
<feGaussianBlur stdDeviation="9.5" result="effect1_foregroundBlur_590_1129"/>
</filter>
<filter id="filter1_b_590_1129" x="12.1027" y="10.8369" width="89.1634" height="89.1631" filterUnits="userSpaceOnUse" color-interpolation-filters="sRGB">
<feFlood flood-opacity="0" result="BackgroundImageFix"/>
<feGaussianBlur in="BackgroundImage" stdDeviation="12"/>
<feComposite in2="SourceAlpha" operator="in" result="effect1_backgroundBlur_590_1129"/>
<feBlend mode="normal" in="SourceGraphic" in2="effect1_backgroundBlur_590_1129" result="shape"/>
</filter>
<filter id="filter2_bd_590_1129" x="28.0014" y="28.7012" width="59.4924" height="57.5264" filterUnits="userSpaceOnUse" color-interpolation-filters="sRGB">
<feFlood flood-opacity="0" result="BackgroundImageFix"/>
<feGaussianBlur in="BackgroundImage" stdDeviation="7.5"/>
<feComposite in2="SourceAlpha" operator="in" result="effect1_backgroundBlur_590_1129"/>
<feColorMatrix in="SourceAlpha" type="matrix" values="0 0 0 0 0 0 0 0 0 0 0 0 0 0 0 0 0 0 127 0" result="hardAlpha"/>
<feOffset dx="5" dy="5"/>
<feGaussianBlur stdDeviation="5"/>
<feColorMatrix type="matrix" values="0 0 0 0 0.733333 0 0 0 0 0.174167 0 0 0 0 0.284367 0 0 0 0.5 0"/>
<feBlend mode="normal" in2="effect1_backgroundBlur_590_1129" result="effect2_dropShadow_590_1129"/>
<feBlend mode="normal" in="SourceGraphic" in2="effect2_dropShadow_590_1129" result="shape"/>
</filter>
<linearGradient id="paint0_linear_590_1129" x1="66.2204" y1="37.8059" x2="7.86232" y2="53.4429" gradientUnits="userSpaceOnUse">
<stop stop-color="#F54A6C"/>
<stop offset="1" stop-color="#F65777" stop-opacity="0.7"/>
</linearGradient>
<linearGradient id="paint1_linear_590_1129" x1="43.3368" y1="40.3995" x2="68.3189" y2="71.3404" gradientUnits="userSpaceOnUse">
<stop stop-color="white" stop-opacity="0.25"/>
<stop offset="1" stop-color="white" stop-opacity="0.06"/>
</linearGradient>
<linearGradient id="paint2_linear_590_1129" x1="70.4028" y1="48.6718" x2="37.5562" y2="49.8193" gradientUnits="userSpaceOnUse">
<stop stop-color="white"/>
<stop offset="1" stop-color="white" stop-opacity="0.2"/>
</linearGradient>
<linearGradient id="paint3_linear_590_1129" x1="46.1784" y1="52.9349" x2="71.2214" y2="53.083" gradientUnits="userSpaceOnUse">
<stop stop-color="white"/>
<stop offset="1" stop-color="white" stop-opacity="0"/>
</linearGradient>
</defs>
</svg>
