<svg width="134" height="140" viewBox="0 0 134 140" fill="none" xmlns="http://www.w3.org/2000/svg">
<path d="M46.7783 34.223C46.7783 32.5118 48.178 31.1122 49.8891 31.1122H84.1112C85.8224 31.1122 87.222 32.5119 87.222 34.223C87.222 35.9342 85.8223 37.3338 84.1112 37.3338H49.8891C48.1779 37.3338 46.7783 35.9341 46.7783 34.223ZM133.889 63.7785V107.334C133.889 112.467 129.689 116.668 124.555 116.668L102.778 116.667V130.666C102.778 135.799 98.5779 140 93.4443 140H9.44446C4.31114 140 0.110596 135.8 0.110596 130.666V34.2219C0.110596 33.4439 0.422011 32.6659 1.04376 32.0442L32.1548 0.933164C32.7776 0.311416 33.5556 0 34.3325 0H93.4435C98.5768 0 102.777 4.20027 102.777 9.33387V54.4449H124.555C129.688 54.4449 133.889 58.6449 133.889 63.7785ZM10.6895 31.1119H28.1114C29.8225 31.1119 31.2222 29.7122 31.2222 28.0011V10.5781L10.6895 31.1119ZM96.5559 116.667H25.0005C19.8672 116.667 15.6667 112.467 15.6667 107.333V63.7779C15.6667 58.6446 19.8669 54.4441 25.0005 54.4441H96.5559L96.5548 9.33306C96.5548 7.6219 95.1551 6.22224 93.444 6.22224L37.4441 6.22115V27.9983C37.4441 33.1316 33.2439 37.3322 28.1103 37.3322H6.33311V130.665C6.33311 132.376 7.73285 133.776 9.44393 133.776H93.4437C95.1549 133.776 96.5546 132.376 96.5546 130.665L96.5559 116.667ZM127.667 63.7785C127.667 62.0673 126.267 60.6677 124.556 60.6677L25.0008 60.6666C23.2896 60.6666 21.89 62.0663 21.89 63.7774V107.333C21.89 109.044 23.2897 110.444 25.0008 110.444H124.556C126.267 110.444 127.667 109.044 127.667 107.333V63.7785ZM56.1116 80.889C56.1116 86.9557 51.2896 91.7776 45.223 91.7776H40.5561V97.9992C40.5561 99.7104 39.1563 101.11 37.4452 101.11C35.7341 101.11 34.3344 99.7103 34.3344 97.9992L34.3333 73.111C34.3333 71.3998 35.7331 70.0001 37.4441 70.0001H45.2219C51.2897 70.0001 56.1116 74.8223 56.1116 80.889ZM49.8888 80.889C49.8888 78.2447 47.8663 76.2221 45.2219 76.2221H40.5549V85.5559H45.2219C47.8673 85.5559 49.8888 83.3782 49.8888 80.889ZM87.222 82.445V88.6666C87.222 95.5114 81.6221 101.111 74.7774 101.111H68.5557C66.8445 101.111 65.4449 99.7116 65.4449 98.0005L65.4438 73.1111C65.4438 71.4 66.8435 70.0003 68.5546 70.0003H74.7763C81.6221 70.0003 87.222 75.6003 87.222 82.445ZM80.9993 82.445C80.9993 79.0228 78.1999 76.2234 74.7776 76.2234H71.6668V94.8897H74.7776C78.1999 94.8897 80.9993 92.0903 80.9993 88.668V82.445ZM115.221 70.0003H99.6659C97.9548 70.0003 96.5551 71.4001 96.5551 73.1111V98.0005C96.5551 99.7117 97.9548 101.111 99.6659 101.111C101.377 101.111 102.777 99.7116 102.777 98.0005V91.7789H108.998C110.71 91.7789 112.109 90.3791 112.109 88.668C112.109 86.957 110.709 85.5572 108.998 85.5572H102.777V76.2234H115.221C116.933 76.2234 118.332 74.8236 118.332 73.1125C118.332 71.4003 116.933 70.0003 115.221 70.0003Z" fill="#F54A6C"/>
</svg>
