<svg width="20" height="20" viewBox="0 0 20 20" fill="none" xmlns="http://www.w3.org/2000/svg">
<g clip-path="url(#clip0_590_1102)">
<path d="M9.22834 2.19449C9.495 1.49116 10.5042 1.49116 10.7717 2.19449L12.4967 6.97283C12.5568 7.12848 12.6628 7.26223 12.8006 7.3564C12.9384 7.45058 13.1015 7.50076 13.2683 7.50033H17.5075C18.2908 7.50033 18.6325 8.47533 18.0167 8.95283L15 11.667C14.8649 11.7709 14.7661 11.9149 14.7179 12.0784C14.6697 12.2419 14.6745 12.4164 14.7317 12.577L15.8333 17.2462C16.1017 17.9962 15.2333 18.6403 14.5767 18.1787L10.4792 15.5787C10.3388 15.48 10.1715 15.4271 10 15.4271C9.82849 15.4271 9.66116 15.48 9.52084 15.5787L5.42334 18.1787C4.7675 18.6403 3.89834 17.9953 4.16667 17.2462L5.26834 12.577C5.32549 12.4164 5.3303 12.2419 5.28209 12.0784C5.23389 11.9149 5.13513 11.7709 5 11.667L1.98334 8.95283C1.36667 8.47533 1.71 7.50033 2.49167 7.50033H6.73084C6.89775 7.50088 7.06089 7.45074 7.19868 7.35655C7.33648 7.26236 7.44242 7.12855 7.5025 6.97283L9.2275 2.19449H9.22834Z" stroke="#A1A1A1" stroke-width="2" stroke-linecap="round" stroke-linejoin="round"/>
</g>
<defs>
<clipPath id="clip0_590_1102">
<rect width="20" height="20" fill="white"/>
</clipPath>
</defs>
</svg>
